<?xml version="1.0" encoding="utf-8" standalone="no"?>
<!DOCTYPE svg PUBLIC "-//W3C//DTD SVG 1.1//EN"
  "http://www.w3.org/Graphics/SVG/1.1/DTD/svg11.dtd">
<!-- Created with matplotlib (https://matplotlib.org/) -->
<svg height="187.2pt" version="1.1" viewBox="0 0 468 187.2" width="468pt" xmlns="http://www.w3.org/2000/svg" xmlns:xlink="http://www.w3.org/1999/xlink">
 <defs>
  <style type="text/css">
*{stroke-linecap:butt;stroke-linejoin:round;white-space:pre;}
  </style>
 </defs>
 <g id="figure_1">
  <g id="patch_1">
   <path d="M 0 187.2 
L 468 187.2 
L 468 0 
L 0 0 
z
" style="fill:#ffffff;"/>
  </g>
  <g id="axes_1">
   <g id="patch_2">
    <path d="M 49.25 151.72 
L 232.73 151.72 
L 232.73 0 
L 49.25 0 
z
" style="fill:#ffffff;"/>
   </g>
   <g id="patch_3">
    <path clip-path="url(#p3cf3f21711)" d="M 49.25 151.72 
L 49.25 0 
L 69.882289 0 
L 69.882289 151.72 
z
" style="fill:#29549e;opacity:0.3;"/>
   </g>
   <g id="matplotlib.axis_1">
    <g id="xtick_1">
     <g id="line2d_1">
      <defs>
       <path d="M 0 0 
L 0 3.5 
" id="m79e12c9c08" style="stroke:#000000;stroke-width:0.8;"/>
      </defs>
      <g>
       <use style="stroke:#000000;stroke-width:0.8;" x="61.008501" xlink:href="#m79e12c9c08" y="151.72"/>
      </g>
     </g>
     <g id="text_1">
      <!-- 0.00 -->
      <defs>
       <path d="M 31.78125 66.40625 
Q 24.171875 66.40625 20.328125 58.90625 
Q 16.5 51.421875 16.5 36.375 
Q 16.5 21.390625 20.328125 13.890625 
Q 24.171875 6.390625 31.78125 6.390625 
Q 39.453125 6.390625 43.28125 13.890625 
Q 47.125 21.390625 47.125 36.375 
Q 47.125 51.421875 43.28125 58.90625 
Q 39.453125 66.40625 31.78125 66.40625 
z
M 31.78125 74.21875 
Q 44.046875 74.21875 50.515625 64.515625 
Q 56.984375 54.828125 56.984375 36.375 
Q 56.984375 17.96875 50.515625 8.265625 
Q 44.046875 -1.421875 31.78125 -1.421875 
Q 19.53125 -1.421875 13.0625 8.265625 
Q 6.59375 17.96875 6.59375 36.375 
Q 6.59375 54.828125 13.0625 64.515625 
Q 19.53125 74.21875 31.78125 74.21875 
z
" id="DejaVuSans-48"/>
       <path d="M 10.6875 12.40625 
L 21 12.40625 
L 21 0 
L 10.6875 0 
z
" id="DejaVuSans-46"/>
      </defs>
      <g transform="translate(48.762407 167.078281)scale(0.11 -0.11)">
       <use xlink:href="#DejaVuSans-48"/>
       <use x="63.623047" xlink:href="#DejaVuSans-46"/>
       <use x="95.410156" xlink:href="#DejaVuSans-48"/>
       <use x="159.033203" xlink:href="#DejaVuSans-48"/>
      </g>
     </g>
    </g>
    <g id="xtick_2">
     <g id="line2d_2">
      <g>
       <use style="stroke:#000000;stroke-width:0.8;" x="99.645699" xlink:href="#m79e12c9c08" y="151.72"/>
      </g>
     </g>
     <g id="text_2">
      <!-- 0.25 -->
      <defs>
       <path d="M 19.1875 8.296875 
L 53.609375 8.296875 
L 53.609375 0 
L 7.328125 0 
L 7.328125 8.296875 
Q 12.9375 14.109375 22.625 23.890625 
Q 32.328125 33.6875 34.8125 36.53125 
Q 39.546875 41.84375 41.421875 45.53125 
Q 43.3125 49.21875 43.3125 52.78125 
Q 43.3125 58.59375 39.234375 62.25 
Q 35.15625 65.921875 28.609375 65.921875 
Q 23.96875 65.921875 18.8125 64.3125 
Q 13.671875 62.703125 7.8125 59.421875 
L 7.8125 69.390625 
Q 13.765625 71.78125 18.9375 73 
Q 24.125 74.21875 28.421875 74.21875 
Q 39.75 74.21875 46.484375 68.546875 
Q 53.21875 62.890625 53.21875 53.421875 
Q 53.21875 48.921875 51.53125 44.890625 
Q 49.859375 40.875 45.40625 35.40625 
Q 44.1875 33.984375 37.640625 27.21875 
Q 31.109375 20.453125 19.1875 8.296875 
z
" id="DejaVuSans-50"/>
       <path d="M 10.796875 72.90625 
L 49.515625 72.90625 
L 49.515625 64.59375 
L 19.828125 64.59375 
L 19.828125 46.734375 
Q 21.96875 47.46875 24.109375 47.828125 
Q 26.265625 48.1875 28.421875 48.1875 
Q 40.625 48.1875 47.75 41.5 
Q 54.890625 34.8125 54.890625 23.390625 
Q 54.890625 11.625 47.5625 5.09375 
Q 40.234375 -1.421875 26.90625 -1.421875 
Q 22.3125 -1.421875 17.546875 -0.640625 
Q 12.796875 0.140625 7.71875 1.703125 
L 7.71875 11.625 
Q 12.109375 9.234375 16.796875 8.0625 
Q 21.484375 6.890625 26.703125 6.890625 
Q 35.15625 6.890625 40.078125 11.328125 
Q 45.015625 15.765625 45.015625 23.390625 
Q 45.015625 31 40.078125 35.4375 
Q 35.15625 39.890625 26.703125 39.890625 
Q 22.75 39.890625 18.8125 39.015625 
Q 14.890625 38.140625 10.796875 36.28125 
z
" id="DejaVuSans-53"/>
      </defs>
      <g transform="translate(87.399605 167.078281)scale(0.11 -0.11)">
       <use xlink:href="#DejaVuSans-48"/>
       <use x="63.623047" xlink:href="#DejaVuSans-46"/>
       <use x="95.410156" xlink:href="#DejaVuSans-50"/>
       <use x="159.033203" xlink:href="#DejaVuSans-53"/>
      </g>
     </g>
    </g>
    <g id="xtick_3">
     <g id="line2d_3">
      <g>
       <use style="stroke:#000000;stroke-width:0.8;" x="138.282897" xlink:href="#m79e12c9c08" y="151.72"/>
      </g>
     </g>
     <g id="text_3">
      <!-- 0.50 -->
      <g transform="translate(126.036803 167.078281)scale(0.11 -0.11)">
       <use xlink:href="#DejaVuSans-48"/>
       <use x="63.623047" xlink:href="#DejaVuSans-46"/>
       <use x="95.410156" xlink:href="#DejaVuSans-53"/>
       <use x="159.033203" xlink:href="#DejaVuSans-48"/>
      </g>
     </g>
    </g>
    <g id="xtick_4">
     <g id="line2d_4">
      <g>
       <use style="stroke:#000000;stroke-width:0.8;" x="176.920094" xlink:href="#m79e12c9c08" y="151.72"/>
      </g>
     </g>
     <g id="text_4">
      <!-- 0.75 -->
      <defs>
       <path d="M 8.203125 72.90625 
L 55.078125 72.90625 
L 55.078125 68.703125 
L 28.609375 0 
L 18.3125 0 
L 43.21875 64.59375 
L 8.203125 64.59375 
z
" id="DejaVuSans-55"/>
      </defs>
      <g transform="translate(164.674001 167.078281)scale(0.11 -0.11)">
       <use xlink:href="#DejaVuSans-48"/>
       <use x="63.623047" xlink:href="#DejaVuSans-46"/>
       <use x="95.410156" xlink:href="#DejaVuSans-55"/>
       <use x="159.033203" xlink:href="#DejaVuSans-53"/>
      </g>
     </g>
    </g>
    <g id="xtick_5">
     <g id="line2d_5">
      <g>
       <use style="stroke:#000000;stroke-width:0.8;" x="215.557292" xlink:href="#m79e12c9c08" y="151.72"/>
      </g>
     </g>
     <g id="text_5">
      <!-- 1.00 -->
      <defs>
       <path d="M 12.40625 8.296875 
L 28.515625 8.296875 
L 28.515625 63.921875 
L 10.984375 60.40625 
L 10.984375 69.390625 
L 28.421875 72.90625 
L 38.28125 72.90625 
L 38.28125 8.296875 
L 54.390625 8.296875 
L 54.390625 0 
L 12.40625 0 
z
" id="DejaVuSans-49"/>
      </defs>
      <g transform="translate(203.311198 167.078281)scale(0.11 -0.11)">
       <use xlink:href="#DejaVuSans-49"/>
       <use x="63.623047" xlink:href="#DejaVuSans-46"/>
       <use x="95.410156" xlink:href="#DejaVuSans-48"/>
       <use x="159.033203" xlink:href="#DejaVuSans-48"/>
      </g>
     </g>
    </g>
    <g id="text_6">
     <!-- Folding coordinate, $x$ (nm) -->
     <defs>
      <path d="M 9.8125 72.90625 
L 51.703125 72.90625 
L 51.703125 64.59375 
L 19.671875 64.59375 
L 19.671875 43.109375 
L 48.578125 43.109375 
L 48.578125 34.8125 
L 19.671875 34.8125 
L 19.671875 0 
L 9.8125 0 
z
" id="DejaVuSans-70"/>
      <path d="M 30.609375 48.390625 
Q 23.390625 48.390625 19.1875 42.75 
Q 14.984375 37.109375 14.984375 27.296875 
Q 14.984375 17.484375 19.15625 11.84375 
Q 23.34375 6.203125 30.609375 6.203125 
Q 37.796875 6.203125 41.984375 11.859375 
Q 46.1875 17.53125 46.1875 27.296875 
Q 46.1875 37.015625 41.984375 42.703125 
Q 37.796875 48.390625 30.609375 48.390625 
z
M 30.609375 56 
Q 42.328125 56 49.015625 48.375 
Q 55.71875 40.765625 55.71875 27.296875 
Q 55.71875 13.875 49.015625 6.21875 
Q 42.328125 -1.421875 30.609375 -1.421875 
Q 18.84375 -1.421875 12.171875 6.21875 
Q 5.515625 13.875 5.515625 27.296875 
Q 5.515625 40.765625 12.171875 48.375 
Q 18.84375 56 30.609375 56 
z
" id="DejaVuSans-111"/>
      <path d="M 9.421875 75.984375 
L 18.40625 75.984375 
L 18.40625 0 
L 9.421875 0 
z
" id="DejaVuSans-108"/>
      <path d="M 45.40625 46.390625 
L 45.40625 75.984375 
L 54.390625 75.984375 
L 54.390625 0 
L 45.40625 0 
L 45.40625 8.203125 
Q 42.578125 3.328125 38.25 0.953125 
Q 33.9375 -1.421875 27.875 -1.421875 
Q 17.96875 -1.421875 11.734375 6.484375 
Q 5.515625 14.40625 5.515625 27.296875 
Q 5.515625 40.1875 11.734375 48.09375 
Q 17.96875 56 27.875 56 
Q 33.9375 56 38.25 53.625 
Q 42.578125 51.265625 45.40625 46.390625 
z
M 14.796875 27.296875 
Q 14.796875 17.390625 18.875 11.75 
Q 22.953125 6.109375 30.078125 6.109375 
Q 37.203125 6.109375 41.296875 11.75 
Q 45.40625 17.390625 45.40625 27.296875 
Q 45.40625 37.203125 41.296875 42.84375 
Q 37.203125 48.484375 30.078125 48.484375 
Q 22.953125 48.484375 18.875 42.84375 
Q 14.796875 37.203125 14.796875 27.296875 
z
" id="DejaVuSans-100"/>
      <path d="M 9.421875 54.6875 
L 18.40625 54.6875 
L 18.40625 0 
L 9.421875 0 
z
M 9.421875 75.984375 
L 18.40625 75.984375 
L 18.40625 64.59375 
L 9.421875 64.59375 
z
" id="DejaVuSans-105"/>
      <path d="M 54.890625 33.015625 
L 54.890625 0 
L 45.90625 0 
L 45.90625 32.71875 
Q 45.90625 40.484375 42.875 44.328125 
Q 39.84375 48.1875 33.796875 48.1875 
Q 26.515625 48.1875 22.3125 43.546875 
Q 18.109375 38.921875 18.109375 30.90625 
L 18.109375 0 
L 9.078125 0 
L 9.078125 54.6875 
L 18.109375 54.6875 
L 18.109375 46.1875 
Q 21.34375 51.125 25.703125 53.5625 
Q 30.078125 56 35.796875 56 
Q 45.21875 56 50.046875 50.171875 
Q 54.890625 44.34375 54.890625 33.015625 
z
" id="DejaVuSans-110"/>
      <path d="M 45.40625 27.984375 
Q 45.40625 37.75 41.375 43.109375 
Q 37.359375 48.484375 30.078125 48.484375 
Q 22.859375 48.484375 18.828125 43.109375 
Q 14.796875 37.75 14.796875 27.984375 
Q 14.796875 18.265625 18.828125 12.890625 
Q 22.859375 7.515625 30.078125 7.515625 
Q 37.359375 7.515625 41.375 12.890625 
Q 45.40625 18.265625 45.40625 27.984375 
z
M 54.390625 6.78125 
Q 54.390625 -7.171875 48.1875 -13.984375 
Q 42 -20.796875 29.203125 -20.796875 
Q 24.46875 -20.796875 20.265625 -20.09375 
Q 16.0625 -19.390625 12.109375 -17.921875 
L 12.109375 -9.1875 
Q 16.0625 -11.328125 19.921875 -12.34375 
Q 23.78125 -13.375 27.78125 -13.375 
Q 36.625 -13.375 41.015625 -8.765625 
Q 45.40625 -4.15625 45.40625 5.171875 
L 45.40625 9.625 
Q 42.625 4.78125 38.28125 2.390625 
Q 33.9375 0 27.875 0 
Q 17.828125 0 11.671875 7.65625 
Q 5.515625 15.328125 5.515625 27.984375 
Q 5.515625 40.671875 11.671875 48.328125 
Q 17.828125 56 27.875 56 
Q 33.9375 56 38.28125 53.609375 
Q 42.625 51.21875 45.40625 46.390625 
L 45.40625 54.6875 
L 54.390625 54.6875 
z
" id="DejaVuSans-103"/>
      <path id="DejaVuSans-32"/>
      <path d="M 48.78125 52.59375 
L 48.78125 44.1875 
Q 44.96875 46.296875 41.140625 47.34375 
Q 37.3125 48.390625 33.40625 48.390625 
Q 24.65625 48.390625 19.8125 42.84375 
Q 14.984375 37.3125 14.984375 27.296875 
Q 14.984375 17.28125 19.8125 11.734375 
Q 24.65625 6.203125 33.40625 6.203125 
Q 37.3125 6.203125 41.140625 7.25 
Q 44.96875 8.296875 48.78125 10.40625 
L 48.78125 2.09375 
Q 45.015625 0.34375 40.984375 -0.53125 
Q 36.96875 -1.421875 32.421875 -1.421875 
Q 20.0625 -1.421875 12.78125 6.34375 
Q 5.515625 14.109375 5.515625 27.296875 
Q 5.515625 40.671875 12.859375 48.328125 
Q 20.21875 56 33.015625 56 
Q 37.15625 56 41.109375 55.140625 
Q 45.0625 54.296875 48.78125 52.59375 
z
" id="DejaVuSans-99"/>
      <path d="M 41.109375 46.296875 
Q 39.59375 47.171875 37.8125 47.578125 
Q 36.03125 48 33.890625 48 
Q 26.265625 48 22.1875 43.046875 
Q 18.109375 38.09375 18.109375 28.8125 
L 18.109375 0 
L 9.078125 0 
L 9.078125 54.6875 
L 18.109375 54.6875 
L 18.109375 46.1875 
Q 20.953125 51.171875 25.484375 53.578125 
Q 30.03125 56 36.53125 56 
Q 37.453125 56 38.578125 55.875 
Q 39.703125 55.765625 41.0625 55.515625 
z
" id="DejaVuSans-114"/>
      <path d="M 34.28125 27.484375 
Q 23.390625 27.484375 19.1875 25 
Q 14.984375 22.515625 14.984375 16.5 
Q 14.984375 11.71875 18.140625 8.90625 
Q 21.296875 6.109375 26.703125 6.109375 
Q 34.1875 6.109375 38.703125 11.40625 
Q 43.21875 16.703125 43.21875 25.484375 
L 43.21875 27.484375 
z
M 52.203125 31.203125 
L 52.203125 0 
L 43.21875 0 
L 43.21875 8.296875 
Q 40.140625 3.328125 35.546875 0.953125 
Q 30.953125 -1.421875 24.3125 -1.421875 
Q 15.921875 -1.421875 10.953125 3.296875 
Q 6 8.015625 6 15.921875 
Q 6 25.140625 12.171875 29.828125 
Q 18.359375 34.515625 30.609375 34.515625 
L 43.21875 34.515625 
L 43.21875 35.40625 
Q 43.21875 41.609375 39.140625 45 
Q 35.0625 48.390625 27.6875 48.390625 
Q 23 48.390625 18.546875 47.265625 
Q 14.109375 46.140625 10.015625 43.890625 
L 10.015625 52.203125 
Q 14.9375 54.109375 19.578125 55.046875 
Q 24.21875 56 28.609375 56 
Q 40.484375 56 46.34375 49.84375 
Q 52.203125 43.703125 52.203125 31.203125 
z
" id="DejaVuSans-97"/>
      <path d="M 18.3125 70.21875 
L 18.3125 54.6875 
L 36.8125 54.6875 
L 36.8125 47.703125 
L 18.3125 47.703125 
L 18.3125 18.015625 
Q 18.3125 11.328125 20.140625 9.421875 
Q 21.96875 7.515625 27.59375 7.515625 
L 36.8125 7.515625 
L 36.8125 0 
L 27.59375 0 
Q 17.1875 0 13.234375 3.875 
Q 9.28125 7.765625 9.28125 18.015625 
L 9.28125 47.703125 
L 2.6875 47.703125 
L 2.6875 54.6875 
L 9.28125 54.6875 
L 9.28125 70.21875 
z
" id="DejaVuSans-116"/>
      <path d="M 56.203125 29.59375 
L 56.203125 25.203125 
L 14.890625 25.203125 
Q 15.484375 15.921875 20.484375 11.0625 
Q 25.484375 6.203125 34.421875 6.203125 
Q 39.59375 6.203125 44.453125 7.46875 
Q 49.3125 8.734375 54.109375 11.28125 
L 54.109375 2.78125 
Q 49.265625 0.734375 44.1875 -0.34375 
Q 39.109375 -1.421875 33.890625 -1.421875 
Q 20.796875 -1.421875 13.15625 6.1875 
Q 5.515625 13.8125 5.515625 26.8125 
Q 5.515625 40.234375 12.765625 48.109375 
Q 20.015625 56 32.328125 56 
Q 43.359375 56 49.78125 48.890625 
Q 56.203125 41.796875 56.203125 29.59375 
z
M 47.21875 32.234375 
Q 47.125 39.59375 43.09375 43.984375 
Q 39.0625 48.390625 32.421875 48.390625 
Q 24.90625 48.390625 20.390625 44.140625 
Q 15.875 39.890625 15.1875 32.171875 
z
" id="DejaVuSans-101"/>
      <path d="M 11.71875 12.40625 
L 22.015625 12.40625 
L 22.015625 4 
L 14.015625 -11.625 
L 7.71875 -11.625 
L 11.71875 4 
z
" id="DejaVuSans-44"/>
      <path d="M 60.015625 54.6875 
L 34.90625 27.875 
L 50.296875 0 
L 39.984375 0 
L 28.421875 21.6875 
L 8.296875 0 
L -2.59375 0 
L 24.3125 28.8125 
L 10.015625 54.6875 
L 20.3125 54.6875 
L 30.8125 34.90625 
L 49.125 54.6875 
z
" id="DejaVuSans-Oblique-120"/>
      <path d="M 31 75.875 
Q 24.46875 64.65625 21.28125 53.65625 
Q 18.109375 42.671875 18.109375 31.390625 
Q 18.109375 20.125 21.3125 9.0625 
Q 24.515625 -2 31 -13.1875 
L 23.1875 -13.1875 
Q 15.875 -1.703125 12.234375 9.375 
Q 8.59375 20.453125 8.59375 31.390625 
Q 8.59375 42.28125 12.203125 53.3125 
Q 15.828125 64.359375 23.1875 75.875 
z
" id="DejaVuSans-40"/>
      <path d="M 52 44.1875 
Q 55.375 50.25 60.0625 53.125 
Q 64.75 56 71.09375 56 
Q 79.640625 56 84.28125 50.015625 
Q 88.921875 44.046875 88.921875 33.015625 
L 88.921875 0 
L 79.890625 0 
L 79.890625 32.71875 
Q 79.890625 40.578125 77.09375 44.375 
Q 74.3125 48.1875 68.609375 48.1875 
Q 61.625 48.1875 57.5625 43.546875 
Q 53.515625 38.921875 53.515625 30.90625 
L 53.515625 0 
L 44.484375 0 
L 44.484375 32.71875 
Q 44.484375 40.625 41.703125 44.40625 
Q 38.921875 48.1875 33.109375 48.1875 
Q 26.21875 48.1875 22.15625 43.53125 
Q 18.109375 38.875 18.109375 30.90625 
L 18.109375 0 
L 9.078125 0 
L 9.078125 54.6875 
L 18.109375 54.6875 
L 18.109375 46.1875 
Q 21.1875 51.21875 25.484375 53.609375 
Q 29.78125 56 35.6875 56 
Q 41.65625 56 45.828125 52.96875 
Q 50 49.953125 52 44.1875 
z
" id="DejaVuSans-109"/>
      <path d="M 8.015625 75.875 
L 15.828125 75.875 
Q 23.140625 64.359375 26.78125 53.3125 
Q 30.421875 42.28125 30.421875 31.390625 
Q 30.421875 20.453125 26.78125 9.375 
Q 23.140625 -1.703125 15.828125 -13.1875 
L 8.015625 -13.1875 
Q 14.5 -2 17.703125 9.0625 
Q 20.90625 20.125 20.90625 31.390625 
Q 20.90625 42.671875 17.703125 53.65625 
Q 14.5 64.65625 8.015625 75.875 
z
" id="DejaVuSans-41"/>
     </defs>
     <g transform="translate(68.115 181.725938)scale(0.11 -0.11)">
      <use transform="translate(0 0.015625)" xlink:href="#DejaVuSans-70"/>
      <use transform="translate(57.519531 0.015625)" xlink:href="#DejaVuSans-111"/>
      <use transform="translate(118.701172 0.015625)" xlink:href="#DejaVuSans-108"/>
      <use transform="translate(146.484375 0.015625)" xlink:href="#DejaVuSans-100"/>
      <use transform="translate(209.960938 0.015625)" xlink:href="#DejaVuSans-105"/>
      <use transform="translate(237.744141 0.015625)" xlink:href="#DejaVuSans-110"/>
      <use transform="translate(301.123047 0.015625)" xlink:href="#DejaVuSans-103"/>
      <use transform="translate(364.599609 0.015625)" xlink:href="#DejaVuSans-32"/>
      <use transform="translate(396.386719 0.015625)" xlink:href="#DejaVuSans-99"/>
      <use transform="translate(451.367188 0.015625)" xlink:href="#DejaVuSans-111"/>
      <use transform="translate(512.548828 0.015625)" xlink:href="#DejaVuSans-111"/>
      <use transform="translate(573.730469 0.015625)" xlink:href="#DejaVuSans-114"/>
      <use transform="translate(614.84375 0.015625)" xlink:href="#DejaVuSans-100"/>
      <use transform="translate(678.320312 0.015625)" xlink:href="#DejaVuSans-105"/>
      <use transform="translate(706.103516 0.015625)" xlink:href="#DejaVuSans-110"/>
      <use transform="translate(769.482422 0.015625)" xlink:href="#DejaVuSans-97"/>
      <use transform="translate(830.761719 0.015625)" xlink:href="#DejaVuSans-116"/>
      <use transform="translate(869.970703 0.015625)" xlink:href="#DejaVuSans-101"/>
      <use transform="translate(931.494141 0.015625)" xlink:href="#DejaVuSans-44"/>
      <use transform="translate(963.28125 0.015625)" xlink:href="#DejaVuSans-32"/>
      <use transform="translate(995.068359 0.015625)" xlink:href="#DejaVuSans-Oblique-120"/>
      <use transform="translate(1054.248047 0.015625)" xlink:href="#DejaVuSans-32"/>
      <use transform="translate(1086.035156 0.015625)" xlink:href="#DejaVuSans-40"/>
      <use transform="translate(1125.048828 0.015625)" xlink:href="#DejaVuSans-110"/>
      <use transform="translate(1188.427734 0.015625)" xlink:href="#DejaVuSans-109"/>
      <use transform="translate(1285.839844 0.015625)" xlink:href="#DejaVuSans-41"/>
     </g>
    </g>
   </g>
   <g id="matplotlib.axis_2">
    <g id="ytick_1">
     <g id="line2d_6">
      <defs>
       <path d="M 0 0 
L -3.5 0 
" id="m3bb2dc018e" style="stroke:#000000;stroke-width:0.8;"/>
      </defs>
      <g>
       <use style="stroke:#000000;stroke-width:0.8;" x="49.25" xlink:href="#m3bb2dc018e" y="144.823636"/>
      </g>
     </g>
     <g id="text_7">
      <!-- 0.00 -->
      <g transform="translate(17.757813 149.002777)scale(0.11 -0.11)">
       <use xlink:href="#DejaVuSans-48"/>
       <use x="63.623047" xlink:href="#DejaVuSans-46"/>
       <use x="95.410156" xlink:href="#DejaVuSans-48"/>
       <use x="159.033203" xlink:href="#DejaVuSans-48"/>
      </g>
     </g>
    </g>
    <g id="ytick_2">
     <g id="line2d_7">
      <g>
       <use style="stroke:#000000;stroke-width:0.8;" x="49.25" xlink:href="#m3bb2dc018e" y="111.753609"/>
      </g>
     </g>
     <g id="text_8">
      <!-- 0.02 -->
      <g transform="translate(17.757813 115.93275)scale(0.11 -0.11)">
       <use xlink:href="#DejaVuSans-48"/>
       <use x="63.623047" xlink:href="#DejaVuSans-46"/>
       <use x="95.410156" xlink:href="#DejaVuSans-48"/>
       <use x="159.033203" xlink:href="#DejaVuSans-50"/>
      </g>
     </g>
    </g>
    <g id="ytick_3">
     <g id="line2d_8">
      <g>
       <use style="stroke:#000000;stroke-width:0.8;" x="49.25" xlink:href="#m3bb2dc018e" y="78.683582"/>
      </g>
     </g>
     <g id="text_9">
      <!-- 0.04 -->
      <defs>
       <path d="M 37.796875 64.3125 
L 12.890625 25.390625 
L 37.796875 25.390625 
z
M 35.203125 72.90625 
L 47.609375 72.90625 
L 47.609375 25.390625 
L 58.015625 25.390625 
L 58.015625 17.1875 
L 47.609375 17.1875 
L 47.609375 0 
L 37.796875 0 
L 37.796875 17.1875 
L 4.890625 17.1875 
L 4.890625 26.703125 
z
" id="DejaVuSans-52"/>
      </defs>
      <g transform="translate(17.757813 82.862723)scale(0.11 -0.11)">
       <use xlink:href="#DejaVuSans-48"/>
       <use x="63.623047" xlink:href="#DejaVuSans-46"/>
       <use x="95.410156" xlink:href="#DejaVuSans-48"/>
       <use x="159.033203" xlink:href="#DejaVuSans-52"/>
      </g>
     </g>
    </g>
    <g id="ytick_4">
     <g id="line2d_9">
      <g>
       <use style="stroke:#000000;stroke-width:0.8;" x="49.25" xlink:href="#m3bb2dc018e" y="45.613555"/>
      </g>
     </g>
     <g id="text_10">
      <!-- 0.06 -->
      <defs>
       <path d="M 33.015625 40.375 
Q 26.375 40.375 22.484375 35.828125 
Q 18.609375 31.296875 18.609375 23.390625 
Q 18.609375 15.53125 22.484375 10.953125 
Q 26.375 6.390625 33.015625 6.390625 
Q 39.65625 6.390625 43.53125 10.953125 
Q 47.40625 15.53125 47.40625 23.390625 
Q 47.40625 31.296875 43.53125 35.828125 
Q 39.65625 40.375 33.015625 40.375 
z
M 52.59375 71.296875 
L 52.59375 62.3125 
Q 48.875 64.0625 45.09375 64.984375 
Q 41.3125 65.921875 37.59375 65.921875 
Q 27.828125 65.921875 22.671875 59.328125 
Q 17.53125 52.734375 16.796875 39.40625 
Q 19.671875 43.65625 24.015625 45.921875 
Q 28.375 48.1875 33.59375 48.1875 
Q 44.578125 48.1875 50.953125 41.515625 
Q 57.328125 34.859375 57.328125 23.390625 
Q 57.328125 12.15625 50.6875 5.359375 
Q 44.046875 -1.421875 33.015625 -1.421875 
Q 20.359375 -1.421875 13.671875 8.265625 
Q 6.984375 17.96875 6.984375 36.375 
Q 6.984375 53.65625 15.1875 63.9375 
Q 23.390625 74.21875 37.203125 74.21875 
Q 40.921875 74.21875 44.703125 73.484375 
Q 48.484375 72.75 52.59375 71.296875 
z
" id="DejaVuSans-54"/>
      </defs>
      <g transform="translate(17.757813 49.792696)scale(0.11 -0.11)">
       <use xlink:href="#DejaVuSans-48"/>
       <use x="63.623047" xlink:href="#DejaVuSans-46"/>
       <use x="95.410156" xlink:href="#DejaVuSans-48"/>
       <use x="159.033203" xlink:href="#DejaVuSans-54"/>
      </g>
     </g>
    </g>
    <g id="ytick_5">
     <g id="line2d_10">
      <g>
       <use style="stroke:#000000;stroke-width:0.8;" x="49.25" xlink:href="#m3bb2dc018e" y="12.543528"/>
      </g>
     </g>
     <g id="text_11">
      <!-- 0.08 -->
      <defs>
       <path d="M 31.78125 34.625 
Q 24.75 34.625 20.71875 30.859375 
Q 16.703125 27.09375 16.703125 20.515625 
Q 16.703125 13.921875 20.71875 10.15625 
Q 24.75 6.390625 31.78125 6.390625 
Q 38.8125 6.390625 42.859375 10.171875 
Q 46.921875 13.96875 46.921875 20.515625 
Q 46.921875 27.09375 42.890625 30.859375 
Q 38.875 34.625 31.78125 34.625 
z
M 21.921875 38.8125 
Q 15.578125 40.375 12.03125 44.71875 
Q 8.5 49.078125 8.5 55.328125 
Q 8.5 64.0625 14.71875 69.140625 
Q 20.953125 74.21875 31.78125 74.21875 
Q 42.671875 74.21875 48.875 69.140625 
Q 55.078125 64.0625 55.078125 55.328125 
Q 55.078125 49.078125 51.53125 44.71875 
Q 48 40.375 41.703125 38.8125 
Q 48.828125 37.15625 52.796875 32.3125 
Q 56.78125 27.484375 56.78125 20.515625 
Q 56.78125 9.90625 50.3125 4.234375 
Q 43.84375 -1.421875 31.78125 -1.421875 
Q 19.734375 -1.421875 13.25 4.234375 
Q 6.78125 9.90625 6.78125 20.515625 
Q 6.78125 27.484375 10.78125 32.3125 
Q 14.796875 37.15625 21.921875 38.8125 
z
M 18.3125 54.390625 
Q 18.3125 48.734375 21.84375 45.5625 
Q 25.390625 42.390625 31.78125 42.390625 
Q 38.140625 42.390625 41.71875 45.5625 
Q 45.3125 48.734375 45.3125 54.390625 
Q 45.3125 60.0625 41.71875 63.234375 
Q 38.140625 66.40625 31.78125 66.40625 
Q 25.390625 66.40625 21.84375 63.234375 
Q 18.3125 60.0625 18.3125 54.390625 
z
" id="DejaVuSans-56"/>
      </defs>
      <g transform="translate(17.757813 16.722668)scale(0.11 -0.11)">
       <use xlink:href="#DejaVuSans-48"/>
       <use x="63.623047" xlink:href="#DejaVuSans-46"/>
       <use x="95.410156" xlink:href="#DejaVuSans-48"/>
       <use x="159.033203" xlink:href="#DejaVuSans-56"/>
      </g>
     </g>
    </g>
    <g id="text_12">
     <!-- Probability density, $P$ -->
     <defs>
      <path d="M 19.671875 64.796875 
L 19.671875 37.40625 
L 32.078125 37.40625 
Q 38.96875 37.40625 42.71875 40.96875 
Q 46.484375 44.53125 46.484375 51.125 
Q 46.484375 57.671875 42.71875 61.234375 
Q 38.96875 64.796875 32.078125 64.796875 
z
M 9.8125 72.90625 
L 32.078125 72.90625 
Q 44.34375 72.90625 50.609375 67.359375 
Q 56.890625 61.8125 56.890625 51.125 
Q 56.890625 40.328125 50.609375 34.8125 
Q 44.34375 29.296875 32.078125 29.296875 
L 19.671875 29.296875 
L 19.671875 0 
L 9.8125 0 
z
" id="DejaVuSans-80"/>
      <path d="M 48.6875 27.296875 
Q 48.6875 37.203125 44.609375 42.84375 
Q 40.53125 48.484375 33.40625 48.484375 
Q 26.265625 48.484375 22.1875 42.84375 
Q 18.109375 37.203125 18.109375 27.296875 
Q 18.109375 17.390625 22.1875 11.75 
Q 26.265625 6.109375 33.40625 6.109375 
Q 40.53125 6.109375 44.609375 11.75 
Q 48.6875 17.390625 48.6875 27.296875 
z
M 18.109375 46.390625 
Q 20.953125 51.265625 25.265625 53.625 
Q 29.59375 56 35.59375 56 
Q 45.5625 56 51.78125 48.09375 
Q 58.015625 40.1875 58.015625 27.296875 
Q 58.015625 14.40625 51.78125 6.484375 
Q 45.5625 -1.421875 35.59375 -1.421875 
Q 29.59375 -1.421875 25.265625 0.953125 
Q 20.953125 3.328125 18.109375 8.203125 
L 18.109375 0 
L 9.078125 0 
L 9.078125 75.984375 
L 18.109375 75.984375 
z
" id="DejaVuSans-98"/>
      <path d="M 32.171875 -5.078125 
Q 28.375 -14.84375 24.75 -17.8125 
Q 21.140625 -20.796875 15.09375 -20.796875 
L 7.90625 -20.796875 
L 7.90625 -13.28125 
L 13.1875 -13.28125 
Q 16.890625 -13.28125 18.9375 -11.515625 
Q 21 -9.765625 23.484375 -3.21875 
L 25.09375 0.875 
L 2.984375 54.6875 
L 12.5 54.6875 
L 29.59375 11.921875 
L 46.6875 54.6875 
L 56.203125 54.6875 
z
" id="DejaVuSans-121"/>
      <path d="M 44.28125 53.078125 
L 44.28125 44.578125 
Q 40.484375 46.53125 36.375 47.5 
Q 32.28125 48.484375 27.875 48.484375 
Q 21.1875 48.484375 17.84375 46.4375 
Q 14.5 44.390625 14.5 40.28125 
Q 14.5 37.15625 16.890625 35.375 
Q 19.28125 33.59375 26.515625 31.984375 
L 29.59375 31.296875 
Q 39.15625 29.25 43.1875 25.515625 
Q 47.21875 21.78125 47.21875 15.09375 
Q 47.21875 7.46875 41.1875 3.015625 
Q 35.15625 -1.421875 24.609375 -1.421875 
Q 20.21875 -1.421875 15.453125 -0.5625 
Q 10.6875 0.296875 5.421875 2 
L 5.421875 11.28125 
Q 10.40625 8.6875 15.234375 7.390625 
Q 20.0625 6.109375 24.8125 6.109375 
Q 31.15625 6.109375 34.5625 8.28125 
Q 37.984375 10.453125 37.984375 14.40625 
Q 37.984375 18.0625 35.515625 20.015625 
Q 33.0625 21.96875 24.703125 23.78125 
L 21.578125 24.515625 
Q 13.234375 26.265625 9.515625 29.90625 
Q 5.8125 33.546875 5.8125 39.890625 
Q 5.8125 47.609375 11.28125 51.796875 
Q 16.75 56 26.8125 56 
Q 31.78125 56 36.171875 55.265625 
Q 40.578125 54.546875 44.28125 53.078125 
z
" id="DejaVuSans-115"/>
      <path d="M 16.890625 72.90625 
L 39.703125 72.90625 
Q 49.65625 72.90625 54.875 68.265625 
Q 60.109375 63.625 60.109375 54.6875 
Q 60.109375 42.671875 52.390625 35.984375 
Q 44.671875 29.296875 30.71875 29.296875 
L 18.3125 29.296875 
L 12.59375 0 
L 2.6875 0 
z
M 25.203125 64.796875 
L 19.921875 37.40625 
L 32.328125 37.40625 
Q 40.71875 37.40625 45.203125 41.703125 
Q 49.703125 46 49.703125 54 
Q 49.703125 59.125 46.65625 61.953125 
Q 43.609375 64.796875 38.09375 64.796875 
z
" id="DejaVuSans-Oblique-80"/>
     </defs>
     <g transform="translate(11.447813 133.885)rotate(-90)scale(0.11 -0.11)">
      <use transform="translate(0 0.015625)" xlink:href="#DejaVuSans-80"/>
      <use transform="translate(60.302734 0.015625)" xlink:href="#DejaVuSans-114"/>
      <use transform="translate(101.416016 0.015625)" xlink:href="#DejaVuSans-111"/>
      <use transform="translate(162.597656 0.015625)" xlink:href="#DejaVuSans-98"/>
      <use transform="translate(226.074219 0.015625)" xlink:href="#DejaVuSans-97"/>
      <use transform="translate(287.353516 0.015625)" xlink:href="#DejaVuSans-98"/>
      <use transform="translate(350.830078 0.015625)" xlink:href="#DejaVuSans-105"/>
      <use transform="translate(378.613281 0.015625)" xlink:href="#DejaVuSans-108"/>
      <use transform="translate(406.396484 0.015625)" xlink:href="#DejaVuSans-105"/>
      <use transform="translate(434.179688 0.015625)" xlink:href="#DejaVuSans-116"/>
      <use transform="translate(473.388672 0.015625)" xlink:href="#DejaVuSans-121"/>
      <use transform="translate(532.568359 0.015625)" xlink:href="#DejaVuSans-32"/>
      <use transform="translate(564.355469 0.015625)" xlink:href="#DejaVuSans-100"/>
      <use transform="translate(627.832031 0.015625)" xlink:href="#DejaVuSans-101"/>
      <use transform="translate(689.355469 0.015625)" xlink:href="#DejaVuSans-110"/>
      <use transform="translate(752.734375 0.015625)" xlink:href="#DejaVuSans-115"/>
      <use transform="translate(804.833984 0.015625)" xlink:href="#DejaVuSans-105"/>
      <use transform="translate(832.617188 0.015625)" xlink:href="#DejaVuSans-116"/>
      <use transform="translate(871.826172 0.015625)" xlink:href="#DejaVuSans-121"/>
      <use transform="translate(931.005859 0.015625)" xlink:href="#DejaVuSans-44"/>
      <use transform="translate(962.792969 0.015625)" xlink:href="#DejaVuSans-32"/>
      <use transform="translate(994.580078 0.015625)" xlink:href="#DejaVuSans-Oblique-80"/>
     </g>
    </g>
   </g>
   <g id="line2d_11">
    <path clip-path="url(#p3cf3f21711)" d="M 49.25 144.548057 
L 49.986867 144.134689 
L 50.723735 143.142605 
L 51.460602 142.536331 
L 52.19747 141.24111 
L 53.671205 135.646857 
L 54.408072 130.741551 
L 55.14494 121.785235 
L 55.881807 108.392097 
L 56.618675 86.20799 
L 58.09241 32.662997 
L 58.829277 11.581206 
L 59.566145 6.896364 
L 60.303012 7.750658 
L 61.03988 17.726617 
L 63.987349 96.872896 
L 64.724217 111.643929 
L 65.461084 122.419066 
L 66.197952 131.01713 
L 66.934819 134.792562 
L 67.671687 139.504962 
L 68.408554 141.323783 
L 69.145422 142.508773 
L 69.882289 143.280394 
L 70.619157 143.473299 
L 71.356024 143.886668 
L 74.303494 143.776436 
L 75.040361 143.500857 
L 75.777229 143.776436 
L 77.250964 143.693763 
L 77.987831 144.024457 
L 80.935301 144.079573 
L 81.672169 143.914226 
L 84.619639 144.300036 
L 85.356506 144.024457 
L 86.093373 143.969342 
L 86.830241 144.107131 
L 87.567108 143.886668 
L 88.303976 144.162247 
L 89.777711 143.886668 
L 90.514578 143.996899 
L 91.251446 143.914226 
L 91.988313 143.693763 
L 92.725181 143.803994 
L 93.462048 143.225278 
L 94.198916 143.19772 
L 95.672651 142.894584 
L 96.409518 143.087489 
L 97.883253 142.563889 
L 98.62012 142.563889 
L 99.356988 142.784352 
L 100.093855 142.15052 
L 100.830723 142.315868 
L 102.304458 141.985173 
L 103.041325 142.481215 
L 104.51506 141.434015 
L 105.988795 142.095405 
L 106.725663 140.993089 
L 107.46253 141.599362 
L 108.199398 141.351341 
L 109.673133 141.847384 
L 110.41 141.296226 
L 111.146867 141.185994 
L 111.883735 141.682036 
L 112.620602 141.682036 
L 113.35747 142.122962 
L 114.094337 141.792268 
L 114.831205 141.213552 
L 115.568072 142.095405 
L 116.30494 142.095405 
L 117.041807 141.930057 
L 117.778675 141.268668 
L 119.25241 141.902499 
L 119.989277 141.847384 
L 121.463012 142.095405 
L 122.19988 141.682036 
L 122.936747 141.737152 
L 123.673614 142.067847 
L 124.410482 141.378899 
L 125.884217 141.874941 
L 126.621084 141.957615 
L 127.357952 141.819826 
L 128.094819 141.874941 
L 128.831687 141.599362 
L 129.568554 142.040289 
L 131.042289 141.930057 
L 131.779157 141.819826 
L 132.516024 142.040289 
L 133.252892 141.737152 
L 133.989759 142.095405 
L 134.726627 141.461573 
L 135.463494 142.398541 
L 136.200361 141.847384 
L 136.937229 142.701678 
L 137.674096 142.453657 
L 139.147831 142.619005 
L 139.884699 142.949699 
L 140.621566 142.839468 
L 141.358434 142.949699 
L 142.095301 143.307952 
L 143.569036 142.756794 
L 144.305904 143.059931 
L 145.779639 143.004815 
L 146.516506 143.33551 
L 147.253373 143.445742 
L 147.990241 143.115047 
L 148.727108 143.363068 
L 149.463976 143.225278 
L 151.674578 143.307952 
L 152.411446 143.170163 
L 153.148313 143.307952 
L 153.885181 142.949699 
L 154.622048 143.611089 
L 156.095783 142.949699 
L 156.832651 143.307952 
L 157.569518 142.977257 
L 160.516988 143.555973 
L 161.253855 143.390626 
L 161.990723 143.445742 
L 162.72759 143.170163 
L 163.464458 143.115047 
L 164.201325 143.638647 
L 164.938193 143.363068 
L 166.411928 143.059931 
L 167.148795 143.142605 
L 168.62253 142.894584 
L 169.359398 143.445742 
L 170.096265 143.059931 
L 170.833133 143.252836 
L 171.57 142.922141 
L 172.306867 142.729236 
L 173.043735 143.004815 
L 173.780602 142.67412 
L 174.51747 142.977257 
L 175.254337 143.032373 
L 176.728072 142.591447 
L 177.46494 142.591447 
L 178.201807 143.032373 
L 178.938675 142.67412 
L 179.675542 142.591447 
L 180.41241 142.28831 
L 181.149277 142.28831 
L 181.886145 143.032373 
L 182.623012 142.591447 
L 184.096747 142.315868 
L 184.833614 142.398541 
L 185.570482 142.839468 
L 186.307349 142.536331 
L 187.044217 142.949699 
L 188.517952 143.280394 
L 189.254819 143.087489 
L 190.728554 143.363068 
L 191.465422 143.803994 
L 192.202289 143.252836 
L 192.939157 143.583531 
L 195.149759 143.418184 
L 195.886627 143.583531 
L 196.623494 143.969342 
L 197.360361 143.638647 
L 198.097229 143.969342 
L 198.834096 143.638647 
L 199.570964 143.914226 
L 200.307831 143.996899 
L 201.781566 143.776436 
L 202.518434 143.941784 
L 203.255301 143.886668 
L 203.992169 144.079573 
L 204.729036 144.024457 
L 205.465904 143.803994 
L 206.202771 144.107131 
L 206.939639 143.969342 
L 208.413373 144.189805 
L 209.887108 143.969342 
L 210.623976 144.300036 
L 211.360843 144.134689 
L 215.782048 144.272478 
L 216.518916 144.465384 
L 217.255783 144.492942 
L 217.992651 144.38271 
L 219.466386 144.603173 
L 220.94012 144.492942 
L 226.098193 144.768521 
L 230.519398 144.823636 
L 232.73 144.796078 
L 232.73 144.796078 
" style="fill:none;stroke:#29549e;stroke-linecap:square;stroke-width:2;"/>
   </g>
   <g id="patch_4">
    <path d="M 49.25 151.72 
L 49.25 0 
" style="fill:none;stroke:#000000;stroke-linecap:square;stroke-linejoin:miter;stroke-width:0.8;"/>
   </g>
   <g id="patch_5">
    <path d="M 49.25 151.72 
L 232.73 151.72 
" style="fill:none;stroke:#000000;stroke-linecap:square;stroke-linejoin:miter;stroke-width:0.8;"/>
   </g>
  </g>
  <g id="axes_2">
   <g id="patch_6">
    <path d="M 284.52 151.72 
L 468 151.72 
L 468 0 
L 284.52 0 
z
" style="fill:#ffffff;"/>
   </g>
   <g id="patch_7">
    <path clip-path="url(#p0cd704a549)" d="M 284.52 151.72 
L 284.52 0 
L 305.152289 0 
L 305.152289 151.72 
z
" style="fill:#29549e;opacity:0.3;"/>
   </g>
   <g id="matplotlib.axis_3">
    <g id="xtick_6">
     <g id="line2d_12">
      <g>
       <use style="stroke:#000000;stroke-width:0.8;" x="296.278501" xlink:href="#m79e12c9c08" y="151.72"/>
      </g>
     </g>
     <g id="text_13">
      <!-- 0.00 -->
      <g transform="translate(284.032407 167.078281)scale(0.11 -0.11)">
       <use xlink:href="#DejaVuSans-48"/>
       <use x="63.623047" xlink:href="#DejaVuSans-46"/>
       <use x="95.410156" xlink:href="#DejaVuSans-48"/>
       <use x="159.033203" xlink:href="#DejaVuSans-48"/>
      </g>
     </g>
    </g>
    <g id="xtick_7">
     <g id="line2d_13">
      <g>
       <use style="stroke:#000000;stroke-width:0.8;" x="334.915699" xlink:href="#m79e12c9c08" y="151.72"/>
      </g>
     </g>
     <g id="text_14">
      <!-- 0.25 -->
      <g transform="translate(322.669605 167.078281)scale(0.11 -0.11)">
       <use xlink:href="#DejaVuSans-48"/>
       <use x="63.623047" xlink:href="#DejaVuSans-46"/>
       <use x="95.410156" xlink:href="#DejaVuSans-50"/>
       <use x="159.033203" xlink:href="#DejaVuSans-53"/>
      </g>
     </g>
    </g>
    <g id="xtick_8">
     <g id="line2d_14">
      <g>
       <use style="stroke:#000000;stroke-width:0.8;" x="373.552897" xlink:href="#m79e12c9c08" y="151.72"/>
      </g>
     </g>
     <g id="text_15">
      <!-- 0.50 -->
      <g transform="translate(361.306803 167.078281)scale(0.11 -0.11)">
       <use xlink:href="#DejaVuSans-48"/>
       <use x="63.623047" xlink:href="#DejaVuSans-46"/>
       <use x="95.410156" xlink:href="#DejaVuSans-53"/>
       <use x="159.033203" xlink:href="#DejaVuSans-48"/>
      </g>
     </g>
    </g>
    <g id="xtick_9">
     <g id="line2d_15">
      <g>
       <use style="stroke:#000000;stroke-width:0.8;" x="412.190094" xlink:href="#m79e12c9c08" y="151.72"/>
      </g>
     </g>
     <g id="text_16">
      <!-- 0.75 -->
      <g transform="translate(399.944001 167.078281)scale(0.11 -0.11)">
       <use xlink:href="#DejaVuSans-48"/>
       <use x="63.623047" xlink:href="#DejaVuSans-46"/>
       <use x="95.410156" xlink:href="#DejaVuSans-55"/>
       <use x="159.033203" xlink:href="#DejaVuSans-53"/>
      </g>
     </g>
    </g>
    <g id="xtick_10">
     <g id="line2d_16">
      <g>
       <use style="stroke:#000000;stroke-width:0.8;" x="450.827292" xlink:href="#m79e12c9c08" y="151.72"/>
      </g>
     </g>
     <g id="text_17">
      <!-- 1.00 -->
      <g transform="translate(438.581198 167.078281)scale(0.11 -0.11)">
       <use xlink:href="#DejaVuSans-49"/>
       <use x="63.623047" xlink:href="#DejaVuSans-46"/>
       <use x="95.410156" xlink:href="#DejaVuSans-48"/>
       <use x="159.033203" xlink:href="#DejaVuSans-48"/>
      </g>
     </g>
    </g>
    <g id="text_18">
     <!-- Folding coordinate, $x$ (nm) -->
     <g transform="translate(303.385 181.725938)scale(0.11 -0.11)">
      <use transform="translate(0 0.015625)" xlink:href="#DejaVuSans-70"/>
      <use transform="translate(57.519531 0.015625)" xlink:href="#DejaVuSans-111"/>
      <use transform="translate(118.701172 0.015625)" xlink:href="#DejaVuSans-108"/>
      <use transform="translate(146.484375 0.015625)" xlink:href="#DejaVuSans-100"/>
      <use transform="translate(209.960938 0.015625)" xlink:href="#DejaVuSans-105"/>
      <use transform="translate(237.744141 0.015625)" xlink:href="#DejaVuSans-110"/>
      <use transform="translate(301.123047 0.015625)" xlink:href="#DejaVuSans-103"/>
      <use transform="translate(364.599609 0.015625)" xlink:href="#DejaVuSans-32"/>
      <use transform="translate(396.386719 0.015625)" xlink:href="#DejaVuSans-99"/>
      <use transform="translate(451.367188 0.015625)" xlink:href="#DejaVuSans-111"/>
      <use transform="translate(512.548828 0.015625)" xlink:href="#DejaVuSans-111"/>
      <use transform="translate(573.730469 0.015625)" xlink:href="#DejaVuSans-114"/>
      <use transform="translate(614.84375 0.015625)" xlink:href="#DejaVuSans-100"/>
      <use transform="translate(678.320312 0.015625)" xlink:href="#DejaVuSans-105"/>
      <use transform="translate(706.103516 0.015625)" xlink:href="#DejaVuSans-110"/>
      <use transform="translate(769.482422 0.015625)" xlink:href="#DejaVuSans-97"/>
      <use transform="translate(830.761719 0.015625)" xlink:href="#DejaVuSans-116"/>
      <use transform="translate(869.970703 0.015625)" xlink:href="#DejaVuSans-101"/>
      <use transform="translate(931.494141 0.015625)" xlink:href="#DejaVuSans-44"/>
      <use transform="translate(963.28125 0.015625)" xlink:href="#DejaVuSans-32"/>
      <use transform="translate(995.068359 0.015625)" xlink:href="#DejaVuSans-Oblique-120"/>
      <use transform="translate(1054.248047 0.015625)" xlink:href="#DejaVuSans-32"/>
      <use transform="translate(1086.035156 0.015625)" xlink:href="#DejaVuSans-40"/>
      <use transform="translate(1125.048828 0.015625)" xlink:href="#DejaVuSans-110"/>
      <use transform="translate(1188.427734 0.015625)" xlink:href="#DejaVuSans-109"/>
      <use transform="translate(1285.839844 0.015625)" xlink:href="#DejaVuSans-41"/>
     </g>
    </g>
   </g>
   <g id="matplotlib.axis_4">
    <g id="ytick_6">
     <g id="line2d_17">
      <g>
       <use style="stroke:#000000;stroke-width:0.8;" x="284.52" xlink:href="#m3bb2dc018e" y="118.623812"/>
      </g>
     </g>
     <g id="text_19">
      <!-- −5 -->
      <defs>
       <path d="M 10.59375 35.5 
L 73.1875 35.5 
L 73.1875 27.203125 
L 10.59375 27.203125 
z
" id="DejaVuSans-8722"/>
      </defs>
      <g transform="translate(261.303594 122.802953)scale(0.11 -0.11)">
       <use xlink:href="#DejaVuSans-8722"/>
       <use x="83.789062" xlink:href="#DejaVuSans-53"/>
      </g>
     </g>
    </g>
    <g id="ytick_7">
     <g id="line2d_18">
      <g>
       <use style="stroke:#000000;stroke-width:0.8;" x="284.52" xlink:href="#m3bb2dc018e" y="84.620534"/>
      </g>
     </g>
     <g id="text_20">
      <!-- 0 -->
      <g transform="translate(270.52125 88.799675)scale(0.11 -0.11)">
       <use xlink:href="#DejaVuSans-48"/>
      </g>
     </g>
    </g>
    <g id="ytick_8">
     <g id="line2d_19">
      <g>
       <use style="stroke:#000000;stroke-width:0.8;" x="284.52" xlink:href="#m3bb2dc018e" y="50.617256"/>
      </g>
     </g>
     <g id="text_21">
      <!-- 5 -->
      <g transform="translate(270.52125 54.796396)scale(0.11 -0.11)">
       <use xlink:href="#DejaVuSans-53"/>
      </g>
     </g>
    </g>
    <g id="ytick_9">
     <g id="line2d_20">
      <g>
       <use style="stroke:#000000;stroke-width:0.8;" x="284.52" xlink:href="#m3bb2dc018e" y="16.613977"/>
      </g>
     </g>
     <g id="text_22">
      <!-- 10 -->
      <g transform="translate(263.5225 20.793118)scale(0.11 -0.11)">
       <use xlink:href="#DejaVuSans-49"/>
       <use x="63.623047" xlink:href="#DejaVuSans-48"/>
      </g>
     </g>
    </g>
    <g id="text_23">
     <!-- Free Energy, $\epsilon_\mathrm{rel}$ (kJ/mol) -->
     <defs>
      <path d="M 9.8125 72.90625 
L 55.90625 72.90625 
L 55.90625 64.59375 
L 19.671875 64.59375 
L 19.671875 43.015625 
L 54.390625 43.015625 
L 54.390625 34.71875 
L 19.671875 34.71875 
L 19.671875 8.296875 
L 56.78125 8.296875 
L 56.78125 0 
L 9.8125 0 
z
" id="DejaVuSans-69"/>
      <path d="M 19.734375 29.5 
Q 14.453125 30.671875 12.15625 33.84375 
Q 10.453125 36.078125 10.453125 39.109375 
Q 10.453125 47.40625 18.359375 52.25 
Q 24.609375 56.0625 34.1875 56.0625 
Q 37.890625 56.0625 41.9375 55.46875 
Q 46 54.890625 50.53125 53.71875 
L 48.96875 45.5625 
Q 44.484375 46.96875 40.71875 47.609375 
Q 36.859375 48.25 33.40625 48.25 
Q 27.59375 48.25 23.78125 46 
Q 19.1875 43.3125 19.1875 39.40625 
Q 19.1875 36.8125 21.578125 35.015625 
Q 24.421875 32.859375 30.078125 32.859375 
L 37.640625 32.859375 
L 36.234375 25.4375 
L 29 25.4375 
Q 22.265625 25.4375 18.3125 22.953125 
Q 12.9375 19.578125 12.9375 14.3125 
Q 12.9375 10.984375 15.828125 8.796875 
Q 19.4375 6.0625 26.8125 6.0625 
Q 31.34375 6.0625 35.6875 6.9375 
Q 40.046875 7.859375 43.84375 9.671875 
L 42.1875 1.3125 
Q 37.546875 -0.046875 33.296875 -0.734375 
Q 29.046875 -1.421875 25.140625 -1.421875 
Q 13.53125 -1.421875 8.0625 3.03125 
Q 3.90625 6.453125 3.90625 12.203125 
Q 3.90625 19.96875 9.375 24.75 
Q 13.421875 28.328125 19.734375 29.5 
z
" id="DejaVuSans-Oblique-949"/>
      <path d="M 9.078125 75.984375 
L 18.109375 75.984375 
L 18.109375 31.109375 
L 44.921875 54.6875 
L 56.390625 54.6875 
L 27.390625 29.109375 
L 57.625 0 
L 45.90625 0 
L 18.109375 26.703125 
L 18.109375 0 
L 9.078125 0 
z
" id="DejaVuSans-107"/>
      <path d="M 9.8125 72.90625 
L 19.671875 72.90625 
L 19.671875 5.078125 
Q 19.671875 -8.109375 14.671875 -14.0625 
Q 9.671875 -20.015625 -1.421875 -20.015625 
L -5.171875 -20.015625 
L -5.171875 -11.71875 
L -2.09375 -11.71875 
Q 4.4375 -11.71875 7.125 -8.046875 
Q 9.8125 -4.390625 9.8125 5.078125 
z
" id="DejaVuSans-74"/>
      <path d="M 25.390625 72.90625 
L 33.6875 72.90625 
L 8.296875 -9.28125 
L 0 -9.28125 
z
" id="DejaVuSans-47"/>
     </defs>
     <g transform="translate(254.993594 143.785)rotate(-90)scale(0.11 -0.11)">
      <use transform="translate(0 0.015625)" xlink:href="#DejaVuSans-70"/>
      <use transform="translate(57.519531 0.015625)" xlink:href="#DejaVuSans-114"/>
      <use transform="translate(98.632812 0.015625)" xlink:href="#DejaVuSans-101"/>
      <use transform="translate(160.15625 0.015625)" xlink:href="#DejaVuSans-101"/>
      <use transform="translate(221.679688 0.015625)" xlink:href="#DejaVuSans-32"/>
      <use transform="translate(253.466797 0.015625)" xlink:href="#DejaVuSans-69"/>
      <use transform="translate(316.650391 0.015625)" xlink:href="#DejaVuSans-110"/>
      <use transform="translate(380.029297 0.015625)" xlink:href="#DejaVuSans-101"/>
      <use transform="translate(441.552734 0.015625)" xlink:href="#DejaVuSans-114"/>
      <use transform="translate(482.666016 0.015625)" xlink:href="#DejaVuSans-103"/>
      <use transform="translate(546.142578 0.015625)" xlink:href="#DejaVuSans-121"/>
      <use transform="translate(605.322266 0.015625)" xlink:href="#DejaVuSans-44"/>
      <use transform="translate(637.109375 0.015625)" xlink:href="#DejaVuSans-32"/>
      <use transform="translate(668.896484 0.015625)" xlink:href="#DejaVuSans-Oblique-949"/>
      <use transform="translate(722.949219 -16.390625)scale(0.7)" xlink:href="#DejaVuSans-114"/>
      <use transform="translate(751.728516 -16.390625)scale(0.7)" xlink:href="#DejaVuSans-101"/>
      <use transform="translate(794.794922 -16.390625)scale(0.7)" xlink:href="#DejaVuSans-108"/>
      <use transform="translate(816.977539 0.015625)" xlink:href="#DejaVuSans-32"/>
      <use transform="translate(848.764648 0.015625)" xlink:href="#DejaVuSans-40"/>
      <use transform="translate(887.77832 0.015625)" xlink:href="#DejaVuSans-107"/>
      <use transform="translate(945.688477 0.015625)" xlink:href="#DejaVuSans-74"/>
      <use transform="translate(975.180664 0.015625)" xlink:href="#DejaVuSans-47"/>
      <use transform="translate(1008.87207 0.015625)" xlink:href="#DejaVuSans-109"/>
      <use transform="translate(1106.28418 0.015625)" xlink:href="#DejaVuSans-111"/>
      <use transform="translate(1167.46582 0.015625)" xlink:href="#DejaVuSans-108"/>
      <use transform="translate(1195.249023 0.015625)" xlink:href="#DejaVuSans-41"/>
     </g>
    </g>
   </g>
   <g id="line2d_21">
    <path clip-path="url(#p0cd704a549)" d="M 284.52 39.059058 
L 285.993735 69.733301 
L 286.730602 74.957382 
L 287.46747 82.568636 
L 288.204337 92.393732 
L 288.941205 98.524295 
L 290.41494 114.138624 
L 292.625542 136.467509 
L 293.36241 140.987357 
L 294.099277 143.909055 
L 294.836145 144.495238 
L 295.573012 144.389845 
L 296.30988 143.108064 
L 297.046747 140.172014 
L 297.783614 136.538087 
L 298.520482 132.245571 
L 299.994217 120.326368 
L 300.731084 113.665395 
L 301.467952 105.453118 
L 302.204819 100.034207 
L 302.941687 89.271715 
L 305.152289 68.282577 
L 305.889157 66.017466 
L 306.626024 59.818124 
L 307.362892 60.309843 
L 308.099759 58.78974 
L 308.836627 61.252482 
L 309.573494 61.704859 
L 310.310361 65.667699 
L 311.047229 61.704859 
L 311.784096 62.574954 
L 312.520964 62.993818 
L 313.257831 57.119888 
L 313.994699 56.524629 
L 314.731566 58.251183 
L 315.468434 53.187806 
L 316.205301 55.90772 
L 316.942169 59.311724 
L 317.679036 57.694965 
L 318.415904 57.119888 
L 319.152771 53.187806 
L 319.889639 49.946911 
L 320.626506 57.119888 
L 321.363373 58.251183 
L 322.100241 55.267526 
L 322.837108 59.818124 
L 323.573976 53.909751 
L 324.310843 56.524629 
L 325.047711 59.818124 
L 325.784578 57.694965 
L 326.521446 59.311724 
L 327.258313 62.993818 
L 327.995181 61.252482 
L 328.732048 68.877836 
L 329.468916 69.167811 
L 330.205783 70.810688 
L 330.942651 72.067791 
L 331.679518 70.280547 
L 333.153253 74.751766 
L 333.89012 74.751766 
L 334.626988 73.01043 
L 335.363855 77.601432 
L 336.100723 76.518311 
L 336.83759 77.947631 
L 337.574458 78.619526 
L 338.311325 75.361285 
L 339.048193 79.106539 
L 339.78506 81.629725 
L 341.258795 77.947631 
L 341.995663 83.704139 
L 342.73253 80.781391 
L 343.469398 82.038495 
L 344.206265 80.488916 
L 344.943133 79.423616 
L 345.68 82.305636 
L 346.416867 82.82762 
L 347.153735 80.340766 
L 347.890602 80.340766 
L 348.62747 77.775415 
L 349.364337 79.734875 
L 350.101205 82.698622 
L 350.838072 77.947631 
L 351.57494 77.947631 
L 352.311807 78.94575 
L 353.048675 82.437646 
L 354.52241 79.106539 
L 355.259277 79.423616 
L 356.733012 77.947631 
L 357.46988 80.340766 
L 358.206747 80.040525 
L 358.943614 78.118116 
L 359.680482 81.90333 
L 360.417349 80.340766 
L 361.154217 79.265818 
L 361.891084 78.783422 
L 362.627952 79.579959 
L 363.364819 79.265818 
L 364.101687 80.781391 
L 364.838554 78.286905 
L 365.575422 78.286905 
L 367.049157 79.579959 
L 367.786024 78.286905 
L 368.522892 80.040525 
L 369.259759 77.947631 
L 369.996627 81.491249 
L 370.733494 75.949661 
L 371.470361 79.423616 
L 372.207229 73.68455 
L 372.944096 75.559687 
L 374.417831 74.332902 
L 375.154699 71.576072 
L 375.891566 72.545657 
L 376.628434 71.576072 
L 377.365301 67.976927 
L 378.839036 73.238126 
L 379.575904 70.547688 
L 380.312771 71.069672 
L 381.049639 71.069672 
L 381.786506 67.665668 
L 382.523373 66.360168 
L 383.260241 70.009131 
L 383.997108 67.348591 
L 384.733976 68.877836 
L 386.207711 67.665668 
L 386.944578 67.976927 
L 387.681446 69.452913 
L 388.418313 67.976927 
L 389.155181 71.576072 
L 389.892048 64.191713 
L 390.628916 68.877836 
L 391.365783 71.576072 
L 392.102651 67.976927 
L 392.839518 71.324761 
L 394.313253 68.877836 
L 395.05012 65.667699 
L 395.786988 64.945754 
L 396.523855 67.025474 
L 397.260723 66.360168 
L 397.99759 69.452913 
L 398.734458 70.009131 
L 399.471325 63.801739 
L 400.208193 67.348591 
L 401.681928 70.547688 
L 402.418795 69.733301 
L 403.155663 70.547688 
L 403.89253 72.067791 
L 404.629398 66.360168 
L 405.366265 70.547688 
L 406.103133 68.582818 
L 406.84 71.823713 
L 407.576867 73.462807 
L 408.313735 71.069672 
L 409.050602 73.903433 
L 409.78747 71.324761 
L 410.524337 70.810688 
L 411.261205 73.01043 
L 411.998072 74.543627 
L 412.73494 74.543627 
L 413.471807 70.810688 
L 414.208675 73.903433 
L 414.945542 74.543627 
L 415.68241 76.703702 
L 416.419277 76.703702 
L 417.156145 70.810688 
L 417.893012 74.543627 
L 418.62988 75.949661 
L 419.366747 76.518311 
L 420.103614 75.949661 
L 420.840482 72.545657 
L 421.577349 74.957382 
L 422.314217 71.576072 
L 423.787952 68.282577 
L 424.524819 70.280547 
L 425.261687 69.452913 
L 425.998554 67.348591 
L 426.735422 61.252482 
L 427.472289 68.582818 
L 428.209157 64.572923 
L 428.946024 65.667699 
L 429.682892 65.310567 
L 430.419759 66.696082 
L 431.156627 64.572923 
L 431.893494 58.251183 
L 432.630361 63.801739 
L 433.367229 58.251183 
L 434.104096 63.801739 
L 434.840964 59.311724 
L 435.577831 57.694965 
L 436.314699 59.311724 
L 437.051566 61.704859 
L 437.788434 58.78974 
L 438.525301 59.818124 
L 439.262169 55.90772 
L 439.999036 57.119888 
L 440.735904 61.252482 
L 441.472771 55.267526 
L 442.209639 58.251183 
L 442.946506 55.90772 
L 443.683373 53.187806 
L 444.420241 57.119888 
L 445.157108 58.251183 
L 445.893976 49.946911 
L 446.630843 54.60222 
L 447.367711 53.909751 
L 448.104578 51.64464 
L 448.841446 54.60222 
L 449.578313 51.64464 
L 450.315181 48.060176 
L 451.052048 50.817006 
L 451.788916 43.509578 
L 452.525783 42.151803 
L 453.262651 47.031792 
L 453.999518 42.151803 
L 454.736386 35.273844 
L 455.473253 42.151803 
L 456.21012 42.151803 
L 456.946988 39.059058 
L 457.683855 33.008733 
L 458.420723 23.515896 
L 459.15759 33.008733 
L 459.894458 23.515896 
L 460.631325 18.635907 
L 461.368193 11.757948 
L 462.10506 0 
L 462.10506 0 
" style="fill:none;stroke:#29549e;stroke-linecap:square;stroke-width:2;"/>
   </g>
   <g id="patch_8">
    <path d="M 284.52 151.72 
L 284.52 0 
" style="fill:none;stroke:#000000;stroke-linecap:square;stroke-linejoin:miter;stroke-width:0.8;"/>
   </g>
   <g id="patch_9">
    <path d="M 284.52 151.72 
L 468 151.72 
" style="fill:none;stroke:#000000;stroke-linecap:square;stroke-linejoin:miter;stroke-width:0.8;"/>
   </g>
   <g id="legend_1">
    <g id="patch_10">
     <path d="M 330.709687 145.032344 
L 352.709687 145.032344 
L 352.709687 137.332344 
L 330.709687 137.332344 
z
" style="fill:#29549e;opacity:0.3;"/>
    </g>
    <g id="text_24">
     <!-- 78% prob. interval -->
     <defs>
      <path d="M 72.703125 32.078125 
Q 68.453125 32.078125 66.03125 28.46875 
Q 63.625 24.859375 63.625 18.40625 
Q 63.625 12.0625 66.03125 8.421875 
Q 68.453125 4.78125 72.703125 4.78125 
Q 76.859375 4.78125 79.265625 8.421875 
Q 81.6875 12.0625 81.6875 18.40625 
Q 81.6875 24.8125 79.265625 28.4375 
Q 76.859375 32.078125 72.703125 32.078125 
z
M 72.703125 38.28125 
Q 80.421875 38.28125 84.953125 32.90625 
Q 89.5 27.546875 89.5 18.40625 
Q 89.5 9.28125 84.9375 3.921875 
Q 80.375 -1.421875 72.703125 -1.421875 
Q 64.890625 -1.421875 60.34375 3.921875 
Q 55.8125 9.28125 55.8125 18.40625 
Q 55.8125 27.59375 60.375 32.9375 
Q 64.9375 38.28125 72.703125 38.28125 
z
M 22.3125 68.015625 
Q 18.109375 68.015625 15.6875 64.375 
Q 13.28125 60.75 13.28125 54.390625 
Q 13.28125 47.953125 15.671875 44.328125 
Q 18.0625 40.71875 22.3125 40.71875 
Q 26.5625 40.71875 28.96875 44.328125 
Q 31.390625 47.953125 31.390625 54.390625 
Q 31.390625 60.6875 28.953125 64.34375 
Q 26.515625 68.015625 22.3125 68.015625 
z
M 66.40625 74.21875 
L 74.21875 74.21875 
L 28.609375 -1.421875 
L 20.796875 -1.421875 
z
M 22.3125 74.21875 
Q 30.03125 74.21875 34.609375 68.875 
Q 39.203125 63.53125 39.203125 54.390625 
Q 39.203125 45.171875 34.640625 39.84375 
Q 30.078125 34.515625 22.3125 34.515625 
Q 14.546875 34.515625 10.03125 39.859375 
Q 5.515625 45.21875 5.515625 54.390625 
Q 5.515625 63.484375 10.046875 68.84375 
Q 14.59375 74.21875 22.3125 74.21875 
z
" id="DejaVuSans-37"/>
      <path d="M 18.109375 8.203125 
L 18.109375 -20.796875 
L 9.078125 -20.796875 
L 9.078125 54.6875 
L 18.109375 54.6875 
L 18.109375 46.390625 
Q 20.953125 51.265625 25.265625 53.625 
Q 29.59375 56 35.59375 56 
Q 45.5625 56 51.78125 48.09375 
Q 58.015625 40.1875 58.015625 27.296875 
Q 58.015625 14.40625 51.78125 6.484375 
Q 45.5625 -1.421875 35.59375 -1.421875 
Q 29.59375 -1.421875 25.265625 0.953125 
Q 20.953125 3.328125 18.109375 8.203125 
z
M 48.6875 27.296875 
Q 48.6875 37.203125 44.609375 42.84375 
Q 40.53125 48.484375 33.40625 48.484375 
Q 26.265625 48.484375 22.1875 42.84375 
Q 18.109375 37.203125 18.109375 27.296875 
Q 18.109375 17.390625 22.1875 11.75 
Q 26.265625 6.109375 33.40625 6.109375 
Q 40.53125 6.109375 44.609375 11.75 
Q 48.6875 17.390625 48.6875 27.296875 
z
" id="DejaVuSans-112"/>
      <path d="M 2.984375 54.6875 
L 12.5 54.6875 
L 29.59375 8.796875 
L 46.6875 54.6875 
L 56.203125 54.6875 
L 35.6875 0 
L 23.484375 0 
z
" id="DejaVuSans-118"/>
     </defs>
     <g transform="translate(361.509687 145.032344)scale(0.11 -0.11)">
      <use xlink:href="#DejaVuSans-55"/>
      <use x="63.623047" xlink:href="#DejaVuSans-56"/>
      <use x="127.246094" xlink:href="#DejaVuSans-37"/>
      <use x="222.265625" xlink:href="#DejaVuSans-32"/>
      <use x="254.052734" xlink:href="#DejaVuSans-112"/>
      <use x="317.529297" xlink:href="#DejaVuSans-114"/>
      <use x="358.611328" xlink:href="#DejaVuSans-111"/>
      <use x="419.792969" xlink:href="#DejaVuSans-98"/>
      <use x="483.269531" xlink:href="#DejaVuSans-46"/>
      <use x="515.056641" xlink:href="#DejaVuSans-32"/>
      <use x="546.84375" xlink:href="#DejaVuSans-105"/>
      <use x="574.626953" xlink:href="#DejaVuSans-110"/>
      <use x="638.005859" xlink:href="#DejaVuSans-116"/>
      <use x="677.214844" xlink:href="#DejaVuSans-101"/>
      <use x="738.738281" xlink:href="#DejaVuSans-114"/>
      <use x="779.851562" xlink:href="#DejaVuSans-118"/>
      <use x="839.03125" xlink:href="#DejaVuSans-97"/>
      <use x="900.310547" xlink:href="#DejaVuSans-108"/>
     </g>
    </g>
   </g>
  </g>
 </g>
 <defs>
  <clipPath id="p3cf3f21711">
   <rect height="151.72" width="183.48" x="49.25" y="0"/>
  </clipPath>
  <clipPath id="p0cd704a549">
   <rect height="151.72" width="183.48" x="284.52" y="0"/>
  </clipPath>
 </defs>
</svg>
